<svg id="visual" viewBox="0 0 900 140" width="900" height="140" xmlns="http://www.w3.org/2000/svg" xmlns:xlink="http://www.w3.org/1999/xlink" version="1.1"><rect x="0" y="0" width="900" height="140" fill="#2b1d2c"></rect><path d="M0 92L39 92L39 72L78 72L78 86L117 86L117 58L157 58L157 93L196 93L196 76L235 76L235 81L274 81L274 76L313 76L313 96L352 96L352 85L391 85L391 90L430 90L430 70L470 70L470 87L509 87L509 66L548 66L548 75L587 75L587 96L626 96L626 89L665 89L665 65L704 65L704 66L743 66L743 65L783 65L783 83L822 83L822 70L861 70L861 57L900 57L900 72L900 0L900 0L861 0L861 0L822 0L822 0L783 0L783 0L743 0L743 0L704 0L704 0L665 0L665 0L626 0L626 0L587 0L587 0L548 0L548 0L509 0L509 0L470 0L470 0L430 0L430 0L391 0L391 0L352 0L352 0L313 0L313 0L274 0L274 0L235 0L235 0L196 0L196 0L157 0L157 0L117 0L117 0L78 0L78 0L39 0L39 0L0 0Z" fill="#1ac3c9"></path><path d="M0 80L39 80L39 86L78 86L78 60L117 60L117 53L157 53L157 57L196 57L196 71L235 71L235 67L274 67L274 69L313 69L313 84L352 84L352 83L391 83L391 56L430 56L430 73L470 73L470 83L509 83L509 70L548 70L548 73L587 73L587 78L626 78L626 51L665 51L665 71L704 71L704 59L743 59L743 84L783 84L783 74L822 74L822 73L861 73L861 65L900 65L900 59L900 0L900 0L861 0L861 0L822 0L822 0L783 0L783 0L743 0L743 0L704 0L704 0L665 0L665 0L626 0L626 0L587 0L587 0L548 0L548 0L509 0L509 0L470 0L470 0L430 0L430 0L391 0L391 0L352 0L352 0L313 0L313 0L274 0L274 0L235 0L235 0L196 0L196 0L157 0L157 0L117 0L117 0L78 0L78 0L39 0L39 0L0 0Z" fill="#34b8d1"></path><path d="M0 44L39 44L39 64L78 64L78 44L117 44L117 57L157 57L157 65L196 65L196 51L235 51L235 78L274 78L274 76L313 76L313 72L352 72L352 50L391 50L391 51L430 51L430 61L470 61L470 78L509 78L509 67L548 67L548 64L587 64L587 48L626 48L626 51L665 51L665 51L704 51L704 53L743 53L743 59L783 59L783 73L822 73L822 58L861 58L861 73L900 73L900 49L900 0L900 0L861 0L861 0L822 0L822 0L783 0L783 0L743 0L743 0L704 0L704 0L665 0L665 0L626 0L626 0L587 0L587 0L548 0L548 0L509 0L509 0L470 0L470 0L430 0L430 0L391 0L391 0L352 0L352 0L313 0L313 0L274 0L274 0L235 0L235 0L196 0L196 0L157 0L157 0L117 0L117 0L78 0L78 0L39 0L39 0L0 0Z" fill="#56abd0"></path><path d="M0 68L39 68L39 42L78 42L78 65L117 65L117 39L157 39L157 49L196 49L196 42L235 42L235 40L274 40L274 66L313 66L313 49L352 49L352 62L391 62L391 46L430 46L430 45L470 45L470 46L509 46L509 68L548 68L548 38L587 38L587 40L626 40L626 52L665 52L665 54L704 54L704 63L743 63L743 50L783 50L783 52L822 52L822 49L861 49L861 53L900 53L900 63L900 0L900 0L861 0L861 0L822 0L822 0L783 0L783 0L743 0L743 0L704 0L704 0L665 0L665 0L626 0L626 0L587 0L587 0L548 0L548 0L509 0L509 0L470 0L470 0L430 0L430 0L391 0L391 0L352 0L352 0L313 0L313 0L274 0L274 0L235 0L235 0L196 0L196 0L157 0L157 0L117 0L117 0L78 0L78 0L39 0L39 0L0 0Z" fill="#719ec7"></path><path d="M0 31L39 31L39 41L78 41L78 39L117 39L117 48L157 48L157 45L196 45L196 61L235 61L235 38L274 38L274 40L313 40L313 41L352 41L352 57L391 57L391 59L430 59L430 53L470 53L470 48L509 48L509 54L548 54L548 36L587 36L587 56L626 56L626 55L665 55L665 60L704 60L704 42L743 42L743 34L783 34L783 54L822 54L822 61L861 61L861 48L900 48L900 44L900 0L900 0L861 0L861 0L822 0L822 0L783 0L783 0L743 0L743 0L704 0L704 0L665 0L665 0L626 0L626 0L587 0L587 0L548 0L548 0L509 0L509 0L470 0L470 0L430 0L430 0L391 0L391 0L352 0L352 0L313 0L313 0L274 0L274 0L235 0L235 0L196 0L196 0L157 0L157 0L117 0L117 0L78 0L78 0L39 0L39 0L0 0Z" fill="#8492b8"></path><path d="M0 24L39 24L39 37L78 37L78 45L117 45L117 41L157 41L157 25L196 25L196 52L235 52L235 51L274 51L274 35L313 35L313 24L352 24L352 35L391 35L391 41L430 41L430 28L470 28L470 28L509 28L509 41L548 41L548 29L587 29L587 49L626 49L626 30L665 30L665 43L704 43L704 50L743 50L743 31L783 31L783 48L822 48L822 50L861 50L861 48L900 48L900 25L900 0L900 0L861 0L861 0L822 0L822 0L783 0L783 0L743 0L743 0L704 0L704 0L665 0L665 0L626 0L626 0L587 0L587 0L548 0L548 0L509 0L509 0L470 0L470 0L430 0L430 0L391 0L391 0L352 0L352 0L313 0L313 0L274 0L274 0L235 0L235 0L196 0L196 0L157 0L157 0L117 0L117 0L78 0L78 0L39 0L39 0L0 0Z" fill="#8e87a6"></path><path d="M0 36L39 36L39 43L78 43L78 19L117 19L117 25L157 25L157 30L196 30L196 42L235 42L235 26L274 26L274 39L313 39L313 23L352 23L352 38L391 38L391 28L430 28L430 39L470 39L470 33L509 33L509 23L548 23L548 24L587 24L587 35L626 35L626 30L665 30L665 39L704 39L704 28L743 28L743 20L783 20L783 32L822 32L822 43L861 43L861 43L900 43L900 23L900 0L900 0L861 0L861 0L822 0L822 0L783 0L783 0L743 0L743 0L704 0L704 0L665 0L665 0L626 0L626 0L587 0L587 0L548 0L548 0L509 0L509 0L470 0L470 0L430 0L430 0L391 0L391 0L352 0L352 0L313 0L313 0L274 0L274 0L235 0L235 0L196 0L196 0L157 0L157 0L117 0L117 0L78 0L78 0L39 0L39 0L0 0Z" fill="#8f7e93"></path><path d="M0 35L39 35L39 29L78 29L78 28L117 28L117 28L157 28L157 24L196 24L196 19L235 19L235 32L274 32L274 16L313 16L313 24L352 24L352 30L391 30L391 13L430 13L430 26L470 26L470 31L509 31L509 23L548 23L548 12L587 12L587 34L626 34L626 17L665 17L665 18L704 18L704 19L743 19L743 12L783 12L783 20L822 20L822 30L861 30L861 29L900 29L900 18L900 0L900 0L861 0L861 0L822 0L822 0L783 0L783 0L743 0L743 0L704 0L704 0L665 0L665 0L626 0L626 0L587 0L587 0L548 0L548 0L509 0L509 0L470 0L470 0L430 0L430 0L391 0L391 0L352 0L352 0L313 0L313 0L274 0L274 0L235 0L235 0L196 0L196 0L157 0L157 0L117 0L117 0L78 0L78 0L39 0L39 0L0 0Z" fill="#897782"></path><path d="M0 22L39 22L39 20L78 20L78 25L117 25L117 22L157 22L157 17L196 17L196 12L235 12L235 20L274 20L274 9L313 9L313 21L352 21L352 16L391 16L391 19L430 19L430 13L470 13L470 14L509 14L509 14L548 14L548 14L587 14L587 10L626 10L626 26L665 26L665 14L704 14L704 24L743 24L743 9L783 9L783 8L822 8L822 17L861 17L861 23L900 23L900 8L900 0L900 0L861 0L861 0L822 0L822 0L783 0L783 0L743 0L743 0L704 0L704 0L665 0L665 0L626 0L626 0L587 0L587 0L548 0L548 0L509 0L509 0L470 0L470 0L430 0L430 0L391 0L391 0L352 0L352 0L313 0L313 0L274 0L274 0L235 0L235 0L196 0L196 0L157 0L157 0L117 0L117 0L78 0L78 0L39 0L39 0L0 0Z" fill="#7e7275"></path><path d="M0 17L39 17L39 5L78 5L78 1L117 1L117 4L157 4L157 6L196 6L196 13L235 13L235 1L274 1L274 7L313 7L313 5L352 5L352 11L391 11L391 13L430 13L430 12L470 12L470 7L509 7L509 11L548 11L548 17L587 17L587 13L626 13L626 14L665 14L665 1L704 1L704 4L743 4L743 1L783 1L783 2L822 2L822 7L861 7L861 0L900 0L900 6L900 0L900 0L861 0L861 0L822 0L822 0L783 0L783 0L743 0L743 0L704 0L704 0L665 0L665 0L626 0L626 0L587 0L587 0L548 0L548 0L509 0L509 0L470 0L470 0L430 0L430 0L391 0L391 0L352 0L352 0L313 0L313 0L274 0L274 0L235 0L235 0L196 0L196 0L157 0L157 0L117 0L117 0L78 0L78 0L39 0L39 0L0 0Z" fill="#706d6d"></path></svg>